<svg viewBox="0 0 64 64" xmlns="http://www.w3.org/2000/svg" xmlns:xlink="http://www.w3.org/1999/xlink" id="Layer_1" overflow="hidden"><path d="M8.9 11.3C2.6 18.3-0.4 28.1 1.6 38.1" stroke="#00A9F4" stroke-width="4.12903" stroke-miterlimit="10" fill="none"/><path d="M49.6 6.5C42.9 2 34.5-0.1 25.9 1.6 21.1 2.6 17 4.5 13.4 7.2" stroke="#00A9F4" stroke-width="4.12903" stroke-miterlimit="10" fill="none"/><path d="M62.4 25.9C61.2 19.8 58.2 14.4 54.1 10.3" stroke="#00A9F4" stroke-width="4.12903" stroke-miterlimit="10" fill="none"/><path d="M24 62C30.9 54.1 34.2 43.2 32 32" stroke="#00A9F4" stroke-width="4.12903" stroke-miterlimit="10" fill="none"/><path d="M40.2 34.2C40.1 33 39.9 31.7 39.6 30.5L39.6 30.5C38.8 26.3 34.6 23.6 30.4 24.4 26.2 25.2 23.5 29.4 24.3 33.6 24.5 35.5 27 48.8 16.2 58.8" stroke="#00A9F4" stroke-width="4.12903" stroke-miterlimit="10" fill="none"/><path d="M33 63C37.4 56.5 40.1 48.7 40.4 40.6" stroke="#00A9F4" stroke-width="4.12903" stroke-miterlimit="10" fill="none"/><path d="M17 27.9C16.4 30.2 16.3 32.7 16.8 35.1L16.8 35.1C18.2 42.4 15.5 49.6 10.1 53.9" stroke="#00A9F4" stroke-width="4.12903" stroke-miterlimit="10" fill="none"/><path d="M43.1 60.9C47.7 51.3 49.4 40.1 47.1 28.9 46.6 26.2 42 14.1 28.8 16.8 25.2 17.5 22.2 19.5 20 22.1" stroke="#00A9F4" stroke-width="4.12903" stroke-miterlimit="10" fill="none"/><path d="M26.8 9.4C14.5 12.2 6.7 24.3 9.2 36.7L9.2 36.7C10 41 8.4 45.2 5.2 47.8" stroke="#00A9F4" stroke-width="4.12903" stroke-miterlimit="10" fill="none"/><path d="M54 53.8C56.3 45.4 56.6 36.4 54.8 27.3L54.8 27.3C52.7 16.7 43.5 9.3 33 8.8" stroke="#00A9F4" stroke-width="4.12903" stroke-miterlimit="10" fill="none"/></svg>