<svg viewBox="0 0 64 64" xmlns="http://www.w3.org/2000/svg" xmlns:xlink="http://www.w3.org/1999/xlink" id="Layer_5" overflow="hidden"><circle cx="32" cy="32" r="31" stroke="#00A9F4" stroke-width="4.12903" stroke-miterlimit="10" fill="none"/><path d="M41.3 2.4 31.6 8.1C31.1 8.4 30.8 8.9 30.7 9.4L30.5 10.6C30.4 11.3 30.6 11.9 31.2 12.4L33.9 14.6C34.2 14.9 34.7 15 35.1 15L35.1 15C36 15 36.8 15.7 37 16.6L37.3 18.7C37.4 19.3 37.2 19.9 36.8 20.3L35.2 22C34.7 22.5 33.9 22.7 33.2 22.5L23 19.4C22.1 19.1 21.2 19.5 20.7 20.3L15.7 29.7C15.3 30.5 15.5 31.4 16.1 32L20 35.6C20.3 35.9 20.7 36.1 21.2 36.1L24.8 36.3C25.9 36.4 26.6 37.3 26.6 38.3L26.6 39C26.6 39.5 26.7 39.9 27 40.3L28.3 41.9C28.5 42.2 28.7 42.5 28.7 42.9L29.6 50.5C29.7 51.2 30.2 51.8 30.9 52.1L32.8 52.8C33.6 53.1 34.5 52.8 35 52L38.8 46.2C39 45.8 39.4 45.6 39.8 45.4L41.4 44.9C41.9 44.7 42.3 44.3 42.5 43.8L42.7 43.3C43 42.6 42.9 41.9 42.4 41.3L41.9 40.7C41.3 40 41.3 38.9 42 38.2L45.7 34.2C46.5 33.4 46.3 32 45.4 31.4L43.4 30 41 28.1C40.5 27.7 40.2 27.1 40.3 26.4L40.3 25.9C40.4 24.9 41.2 24.2 42.2 24.2L45.3 24.2C45.7 24.2 46 24.1 46.3 23.9L50.6 21.2C50.9 21 51.1 20.8 51.2 20.6L56 12.5" stroke="#00A9F4" stroke-width="4.12903" stroke-miterlimit="10" fill="none"/></svg>