<svg viewBox="0 0 64 64" xmlns="http://www.w3.org/2000/svg" xmlns:xlink="http://www.w3.org/1999/xlink" id="Layer_1" overflow="hidden"><path d="M16.6 58.1C17.9 57.2 18.9 55.2 19.4 54.2 19.6 53.9 19.8 53.6 20.1 53.3 20.6 52.9 21.3 52.2 21.7 51.3 22.1 50.5 22 49.4 21.9 48.8 21.8 48.4 21.8 47.9 22 47.5 22.3 46.4 22.9 44.1 22.5 43.3 22.1 42.6 21 42.1 20.2 41.8 19.7 41.6 19.3 41.3 19 40.9 18.5 40.3 17.6 39.4 16.1 39.1 14.7 39 13.2 38 13.2 35.9 13.2 34.4 14.3 32.3 14.9 31.2 15.2 30.7 15.5 30.4 16 30.1 16.7 29.7 17.7 29.1 17.8 28.5 18 28 18.1 27 18.2 26.4 18.2 26.1 18.3 25.7 18.5 25.4 18.9 24.7 19.5 23.1 19.5 21.7 19.5 20.6 18.8 19.7 17.8 19.3 17.8 19.3 17.8 19.3 17.8 19.3 17.3 19.1 16.9 18.7 16.6 18.3L14.7 15.5" stroke="#00A9F4" stroke-width="4.12903" stroke-miterlimit="10" fill="none"/><path d="M53.2 52.7C51.2 51.8 48.2 51 46.8 50.6 46.3 50.5 45.9 50.2 45.6 49.9 44.6 48.9 42.3 46.8 40.6 47 39.3 47.2 38 48.1 37.2 48.9 36.6 49.4 36.3 50.1 36.3 50.9 36.3 51.1 36.3 51.3 36.3 51.6 36.3 53.1 34.9 54.3 33.4 54.2 33 54.2 32.5 54.2 32.2 54.5 31.7 54.9 31.6 55.6 31.5 56.3 31.5 57.3 31 58.2 30.1 58.7 29.5 59 29 59.4 28.9 59.7 28.6 60.5 29.8 62.4 30 63.1" stroke="#00A9F4" stroke-width="4.12903" stroke-miterlimit="10" fill="none"/><path d="M26.1 9.9C14.1 12.6 5.2 23.3 5.2 36.1 5.1 51 17.1 63 32 63 46.9 63 58.9 51 58.9 36.1 58.9 33.2 58.5 30.4 57.6 27.8" stroke="#00A9F4" stroke-width="4.12903" stroke-miterlimit="10" fill="none"/><path d="M56.8 13.1C56.8 20.5 44.4 32 44.4 32 44.4 32 32 20.5 32 13.1 32 5.4 38.4 1 44.4 1 50.4 1 56.8 5.4 56.8 13.1Z" stroke="#00A9F4" stroke-width="4.12903" stroke-miterlimit="10" fill="none"/><circle cx="44.4" cy="13.4" r="4.1" stroke="#00A9F4" stroke-width="4.12903" stroke-miterlimit="10" fill="none"/></svg>